<svg id="Capa_1" data-name="Capa 1" xmlns="http://www.w3.org/2000/svg" viewBox="0 0 221 80"><defs><style>.cls-1{fill:#fff;}.cls-2{fill:none;stroke:#707070;stroke-miterlimit:10;stroke-width:3px;}.cls-3{fill:#ffc20e;}</style></defs><title>logo-2Mesa de trabajo 1</title><path class="cls-1" d="M19.35,18.47l-2.19,15.9H11.88l2.19-15.9H8.5l.7-4.78H25.62l-.7,4.78Z"/><path class="cls-1" d="M30.84,27.4c-.23,1.66,1.14,2.48,2.63,2.48a3.07,3.07,0,0,0,3.29-2.48l1.93-13.68H44L42,27.4c-.67,4.84-5.16,7.26-9.27,7.26s-7.88-2.42-7.21-7.26l1.93-13.68h5.28Z"/><path class="cls-1" d="M52.42,13.72h8.26c5,0,6.94,3.7,6.53,7.44-.44,3.91-3.32,7.17-8.31,7.17H55.6l-.84,6H49.54Zm6.86,10A2.8,2.8,0,0,0,62,21a1.93,1.93,0,0,0-2-2.42H57l-.73,5.11Z"/><path class="cls-1" d="M74.71,27.81h-.94l-.9,6.56H67.59l2.89-20.65h8.25C83,13.72,86,16,85.44,20.84c-.52,3.82-2.16,5.1-5,6.44l5,7.09h-6.5Zm2.77-4.49a2.65,2.65,0,0,0,2.68-2.4,1.9,1.9,0,0,0-2-2.33H75.09l-.68,4.73Z"/><path class="cls-1" d="M93.37,21.71h8.37l-.64,4.64H92.73l-.44,3.09h9.1l-.67,4.93H86.34l2.89-20.65h14.38l-.7,4.93h-9.1Z"/><path class="cls-1" d="M106.38,13.72h8.25c5.05,0,7,3.7,6.54,7.44-.44,3.91-3.33,7.17-8.32,7.17h-3.29l-.85,6h-5.22Zm6.85,10A2.8,2.8,0,0,0,116,21a1.93,1.93,0,0,0-2-2.42h-3l-.73,5.11Z"/><path class="cls-1" d="M137.5,34.37h-5.6l-.79-4.14H125.6l-1.84,4.14h-5.6l10.09-20.65H133Zm-7-8.78-.61-6h-.21l-2.27,6Z"/><path class="cls-1" d="M42.45,66.5H35.59l3.79-27.14h6.87Z"/><path class="cls-1" d="M60.69,39.36c5.45,0,10.16,2.76,9.28,9.09l-1.3,9.12c-.88,6.25-6.33,8.93-11.77,8.93H46.74l3.8-27.14ZM58,60.06c1.88,0,3.57-1,3.76-2.49l1.3-9.12c.19-1.5-1.15-2.69-3-2.69H56.55l-2,14.3Z"/><path class="cls-1" d="M80.32,49.87h11L90.47,56h-11L78.9,60h12L90,66.5H71.08l3.8-27.14H93.77l-.92,6.48h-12Z"/><path class="cls-1" d="M116.61,66.5h-7.36l-1-5.44H101L98.56,66.5H91.2l13.26-27.14h6.25ZM107.45,55l-.8-7.93h-.27l-3,7.93Z"/><path class="cls-1" d="M122.17,39.36h6.9l-2.88,20.36h11l-.92,6.78H118.38Z"/><line class="cls-2" x1="148" y1="13.5" x2="148" y2="66.5"/><path class="cls-3" d="M159.63,13.51h23.52c0,2.88,0,5.75,0,8.63a7.46,7.46,0,0,0-3.3.64,4.89,4.89,0,0,0-2.54,4.36c0,6.06,0,12.11,0,18.17a9.12,9.12,0,0,0,2,6,8.71,8.71,0,0,0,9.54,2.74,8.88,8.88,0,0,0,6-8.41q0-9.26,0-18.52a4.89,4.89,0,0,0-2.54-4.37,7.34,7.34,0,0,0-3.31-.65V13.51h23.46c0,2.88,0,5.75,0,8.63a7,7,0,0,0-3.42.73,4.89,4.89,0,0,0-2.38,4.24c0,6.43,0,12.87,0,19.31a20.63,20.63,0,0,1-19.9,20.08h-1.27a20.63,20.63,0,0,1-20-20.1c-.06-6.42,0-12.83,0-19.25a4.89,4.89,0,0,0-2.35-4.26,7,7,0,0,0-3.5-.75Z"/></svg>